<svg width="18" height="18" viewBox="0 0 18 18" fill="none" xmlns="http://www.w3.org/2000/svg">
<path d="M8.99984 0.667318C13.5957 0.667318 17.3332 4.40565 17.3332 9.00065C17.3332 13.5957 13.5957 17.334 8.99984 17.334C4.40484 17.334 0.666504 13.5957 0.666504 9.00065C0.666504 4.40565 4.40484 0.667318 8.99984 0.667318Z" fill="#12B8E2"/>
<path d="M7.79782 5.48391C7.95699 5.48391 8.11699 5.54474 8.23865 5.66641L11.1445 8.55807C11.262 8.67557 11.3278 8.83474 11.3278 9.00141C11.3278 9.16724 11.262 9.32641 11.1445 9.44391L8.23865 12.3372C7.99449 12.5806 7.59949 12.5806 7.35532 12.3356C7.11199 12.0906 7.11282 11.6947 7.35699 11.4514L9.81782 9.00141L7.35699 6.55141C7.11282 6.30807 7.11199 5.91307 7.35532 5.66807C7.47699 5.54474 7.63782 5.48391 7.79782 5.48391Z" fill="white"/>
</svg>
