<svg width="12" height="18" viewBox="0 0 12 18" fill="none" xmlns="http://www.w3.org/2000/svg">
<path fill-rule="evenodd" clip-rule="evenodd" d="M3.11001 1.44861C4.93073 0.390697 7.16868 0.409188 8.97231 1.49705C10.7582 2.60706 11.8436 4.58812 11.8335 6.71917C11.792 8.83625 10.6281 10.8263 9.17322 12.3647C8.33352 13.2566 7.39417 14.0453 6.37436 14.7147C6.26933 14.7754 6.15428 14.8161 6.0349 14.8346C5.91999 14.8297 5.80809 14.7958 5.70929 14.7358C4.15235 13.7301 2.78644 12.4463 1.67727 10.9463C0.749149 9.69411 0.221855 8.18131 0.166993 6.61332C0.165788 4.47817 1.2893 2.50653 3.11001 1.44861ZM4.16211 7.49699C4.46838 8.25204 5.19129 8.74455 5.99331 8.74455C6.51873 8.74832 7.0238 8.53787 7.39598 8.16007C7.76817 7.78228 7.97654 7.26854 7.97468 6.73333C7.97749 5.91637 7.49652 5.17827 6.75636 4.86366C6.0162 4.54904 5.16284 4.71997 4.59474 5.29663C4.02663 5.8733 3.85584 6.74195 4.16211 7.49699Z" fill="#6A93B0"/>
<ellipse opacity="0.4" cx="6.00065" cy="16.5013" rx="4.16667" ry="0.833334" fill="#6A93B0"/>
</svg>
