<svg width="24" height="24" viewBox="0 0 24 24" fill="none" xmlns="http://www.w3.org/2000/svg">
<g clip-path="url(#clip0_55362_233923)">
<path d="M18 3H6C4.89543 3 4 3.89543 4 5V6C4 7.10457 4.89543 8 6 8H18C19.1046 8 20 7.10457 20 6V5C20 3.89543 19.1046 3 18 3Z" stroke="black" stroke-linecap="round" stroke-linejoin="round"/>
<path d="M8 14H6C4.89543 14 4 14.8954 4 16V19C4 20.1046 4.89543 21 6 21H8C9.10457 21 10 20.1046 10 19V16C10 14.8954 9.10457 14 8 14Z" stroke="black" stroke-linecap="round" stroke-linejoin="round"/>
<path d="M18 12H16C14.8954 12 14 12.8954 14 14V19C14 20.1046 14.8954 21 16 21H18C19.1046 21 20 20.1046 20 19V14C20 12.8954 19.1046 12 18 12Z" stroke="black" stroke-linecap="round" stroke-linejoin="round"/>
</g>
<defs>
<clipPath id="clip0_55362_233923">
<rect width="24" height="24" fill="white"/>
</clipPath>
</defs>
</svg>
